<svg xmlns="http://www.w3.org/2000/svg" viewBox="0 0 426.76 454.09"><defs><style>.a{fill:#07f;}.b{fill:#625e5d;}.c{fill:#333;}.d{fill:#fff;}</style></defs><title>Hero</title><circle class="a" cx="212.8" cy="222.17" r="36"/><circle class="b" cx="212.98" cy="272.59" r="2"/><circle class="b" cx="212.98" cy="290.59" r="2"/><circle class="b" cx="212.98" cy="308.59" r="2"/><circle class="b" cx="212.98" cy="326.59" r="2"/><circle class="b" cx="212.98" cy="344.59" r="2"/><circle class="b" cx="212.98" cy="362.59" r="2"/><circle class="b" cx="212.98" cy="380.59" r="2"/><circle class="b" cx="212.98" cy="63.59" r="2"/><circle class="b" cx="212.98" cy="81.59" r="2"/><circle class="b" cx="212.98" cy="99.59" r="2"/><circle class="b" cx="212.98" cy="117.59" r="2"/><circle class="b" cx="212.98" cy="135.59" r="2"/><circle class="b" cx="212.98" cy="153.59" r="2"/><circle class="b" cx="212.98" cy="171.59" r="2"/><circle class="b" cx="1308.16" cy="740.49" r="2" transform="translate(-1226.29 907.04) rotate(-59.93)"/><circle class="b" cx="1323.73" cy="749.51" r="2" transform="translate(-1226.33 925.02) rotate(-59.93)"/><circle class="b" cx="1339.31" cy="758.53" r="2" transform="translate(-1226.36 943) rotate(-59.93)"/><circle class="b" cx="1354.89" cy="767.55" r="2" transform="translate(-1226.4 960.98) rotate(-59.93)"/><circle class="b" cx="1370.46" cy="776.57" r="2" transform="translate(-1226.43 978.96) rotate(-59.93)"/><circle class="b" cx="1386.04" cy="785.59" r="2" transform="translate(-1226.47 996.94) rotate(-59.93)"/><circle class="b" cx="1401.62" cy="794.61" r="2" transform="translate(-1226.5 1014.92) rotate(-59.93)"/><circle class="b" cx="1500.58" cy="841.47" r="2" transform="translate(-1217.68 1123.94) rotate(-59.93)"/><circle class="b" cx="1516.16" cy="850.49" r="2" transform="translate(-1217.72 1141.92) rotate(-59.93)"/><circle class="b" cx="1531.73" cy="859.51" r="2" transform="translate(-1217.75 1159.9) rotate(-59.93)"/><circle class="b" cx="1547.31" cy="868.53" r="2" transform="translate(-1217.78 1177.88) rotate(-59.93)"/><circle class="b" cx="1562.89" cy="877.55" r="2" transform="translate(-1217.82 1195.86) rotate(-59.93)"/><circle class="b" cx="1578.46" cy="886.57" r="2" transform="translate(-1217.85 1213.84) rotate(-59.93)"/><circle class="b" cx="1594.04" cy="895.59" r="2" transform="translate(-1217.89 1231.82) rotate(-59.93)"/><circle class="b" cx="1402.65" cy="843.53" r="2" transform="translate(-1471.97 220.32) rotate(-30.02)"/><circle class="b" cx="1387.06" cy="852.53" r="2" transform="translate(-1478.56 213.73) rotate(-30.02)"/><circle class="b" cx="1371.48" cy="861.54" r="2" transform="matrix(0.87, -0.5, 0.5, 0.87, -1485.16, 207.14)"/><circle class="b" cx="1355.89" cy="870.54" r="2" transform="translate(-1491.75 200.55) rotate(-30.02)"/><circle class="b" cx="1340.31" cy="879.55" r="2" transform="matrix(0.87, -0.5, 0.5, 0.87, -1498.35, 193.96)"/><circle class="b" cx="1324.72" cy="888.55" r="2" transform="translate(-1504.94 187.37) rotate(-30.02)"/><circle class="b" cx="1309.13" cy="897.55" r="2" transform="translate(-1511.54 180.78) rotate(-30.02)"/><circle class="b" cx="1590.06" cy="735.53" r="2" transform="translate(-1392.81 299.58) rotate(-30.02)"/><circle class="b" cx="1574.48" cy="744.54" r="2" transform="translate(-1399.41 292.99) rotate(-30.02)"/><circle class="b" cx="1558.89" cy="753.54" r="2" transform="translate(-1406 286.41) rotate(-30.02)"/><circle class="b" cx="1543.31" cy="762.55" r="2" transform="matrix(0.87, -0.5, 0.5, 0.87, -1412.6, 279.82)"/><circle class="b" cx="1527.72" cy="771.55" r="2" transform="translate(-1419.19 273.23) rotate(-30.02)"/><circle class="b" cx="1512.13" cy="780.55" r="2" transform="translate(-1425.79 266.64) rotate(-30.02)"/><circle class="b" cx="1496.55" cy="789.56" r="2" transform="matrix(0.87, -0.5, 0.5, 0.87, -1432.38, 260.05)"/><path class="c" d="M1461.31,1042.23a1,1,0,0,1-.92-0.62l-2.34-5.66a1,1,0,0,1,1.85-.77l2.34,5.66A1,1,0,0,1,1461.31,1042.23Z" transform="translate(-1238.12 -594.46)"/><path class="c" d="M1444.05,1000.57a1,1,0,0,1-.92-0.62l-2.36-5.71a1,1,0,1,1,1.85-.77l2.36,5.71A1,1,0,0,1,1444.05,1000.57Z" transform="translate(-1238.12 -594.46)"/><path class="c" d="M1427.82,1028.35a1,1,0,0,1-.38-1.92l5.56-2.3a1,1,0,0,1,.77,1.85l-5.56,2.3A1,1,0,0,1,1427.82,1028.35Z" transform="translate(-1238.12 -594.46)"/><path class="c" d="M1469.58,1011.06a1,1,0,0,1-.38-1.92l5.61-2.32a1,1,0,1,1,.77,1.85L1470,1011A1,1,0,0,1,1469.58,1011.06Z" transform="translate(-1238.12 -594.46)"/><path class="c" d="M1441.69,1042.23a1,1,0,0,1-.92-1.38l2.31-5.57a1,1,0,1,1,1.85.77l-2.31,5.57A1,1,0,0,1,1441.69,1042.23Z" transform="translate(-1238.12 -594.46)"/><path class="c" d="M1459,1000.55a1,1,0,0,1-.92-1.38l2.36-5.69a1,1,0,1,1,1.85.77l-2.36,5.69A1,1,0,0,1,1459,1000.55Z" transform="translate(-1238.12 -594.46)"/><path class="c" d="M1475.18,1028.35a1,1,0,0,1-.38-0.08l-5.75-2.38a1,1,0,0,1,.77-1.85l5.75,2.38A1,1,0,0,1,1475.18,1028.35Z" transform="translate(-1238.12 -594.46)"/><path class="c" d="M1433.56,1011.12a1,1,0,0,1-.38-0.08l-5.75-2.38a1,1,0,1,1,.77-1.85l5.75,2.38A1,1,0,0,1,1433.56,1011.12Z" transform="translate(-1238.12 -594.46)"/><path class="c" d="M1472.71,1039.76a1,1,0,0,1-.71-0.29l-7.4-7.4a1,1,0,0,1,1.41-1.41l7.4,7.4A1,1,0,0,1,1472.71,1039.76Z" transform="translate(-1238.12 -594.46)"/><path class="c" d="M1437.64,1004.68a1,1,0,0,1-.71-0.29l-7.35-7.35a1,1,0,0,1,1.41-1.41l7.35,7.35A1,1,0,0,1,1437.64,1004.68Z" transform="translate(-1238.12 -594.46)"/><path class="c" d="M1430.29,1039.76a1,1,0,0,1-.71-1.71l7.35-7.35a1,1,0,0,1,1.41,1.41l-7.35,7.35A1,1,0,0,1,1430.29,1039.76Z" transform="translate(-1238.12 -594.46)"/><path class="c" d="M1465.34,1004.7a1,1,0,0,1-.71-1.71l7.37-7.37a1,1,0,0,1,1.41,1.41l-7.37,7.37A1,1,0,0,1,1465.34,1004.7Z" transform="translate(-1238.12 -594.46)"/><path class="c" d="M1451.5,1048.54a1,1,0,0,1-1-1v-10.36a1,1,0,1,1,2,0v10.36A1,1,0,0,1,1451.5,1048.54Z" transform="translate(-1238.12 -594.46)"/><path class="c" d="M1451.5,999a1,1,0,0,1-1-1V987.54a1,1,0,1,1,2,0V998A1,1,0,0,1,1451.5,999Z" transform="translate(-1238.12 -594.46)"/><path class="c" d="M1432,1018.54h-10.5a1,1,0,0,1,0-2H1432A1,1,0,0,1,1432,1018.54Z" transform="translate(-1238.12 -594.46)"/><path class="c" d="M1481.5,1018.54H1471a1,1,0,0,1,0-2h10.49A1,1,0,0,1,1481.5,1018.54Z" transform="translate(-1238.12 -594.46)"/><path class="c" d="M1451.53,1037.74a20.2,20.2,0,1,1,18.63-27.92h0A20.2,20.2,0,0,1,1451.53,1037.74Zm0-38.4a18.23,18.23,0,1,0,16.81,11.24h0A18.24,18.24,0,0,0,1451.5,999.34Z" transform="translate(-1238.12 -594.46)"/><path class="c" d="M1470,635.92h-11.77a1,1,0,0,1,0-2h11.65a12,12,0,0,0,5.14-22.08l-0.44-.29V611a8.56,8.56,0,0,0-8.59-8.39,8,8,0,0,0-4,1.08l-0.81.47-0.52-.78a15.55,15.55,0,0,0-28.5,8.59v1.64l-0.86.12a10.13,10.13,0,0,0,1.42,20.16h11.8a1,1,0,0,1,0,2h-11.82a12.13,12.13,0,0,1-2.54-24,17.55,17.55,0,0,1,31.64-10.37,10,10,0,0,1,4.21-.92,10.56,10.56,0,0,1,10.57,9.83,14,14,0,0,1-6.48,25.46H1470Z" transform="translate(-1238.12 -594.46)"/><path class="c" d="M1458.21,625.55a1,1,0,0,1-.71-0.29l-5.62-5.62a0.53,0.53,0,0,0-.76,0l-5.62,5.62a1,1,0,1,1-1.41-1.41l5.62-5.62a2.54,2.54,0,0,1,3.58,0l5.62,5.62A1,1,0,0,1,1458.21,625.55Z" transform="translate(-1238.12 -594.46)"/><path class="c" d="M1451.5,644.63a1,1,0,0,1-1-1V618.39a1,1,0,0,1,2,0v25.24A1,1,0,0,1,1451.5,644.63Z" transform="translate(-1238.12 -594.46)"/><path class="c" d="M1289.37,930.26h-49.61v-40h49.61v40Zm-47.61-2h45.61v-36h-45.61v36Z" transform="translate(-1238.12 -594.46)"/><path class="c" d="M1245.26,921.26a1,1,0,0,1-.72-1.7l8.05-8.32,5.75,5.94,12.7-13.12L1285.49,919a1,1,0,1,1-1.44,1.39l-13-13.45-12.7,13.12-5.75-5.94L1246,921A1,1,0,0,1,1245.26,921.26Z" transform="translate(-1238.12 -594.46)"/><path class="c" d="M1253.35,907.77a5.75,5.75,0,1,1,5.6-5.75A5.69,5.69,0,0,1,1253.35,907.77Zm0-9.5a3.76,3.76,0,1,0,3.6,3.75A3.68,3.68,0,0,0,1253.35,898.26Z" transform="translate(-1238.12 -594.46)"/><path class="c" d="M1611,728l-2,2V694c0-2,2.23-3,4.34-3h13c2.71,0,2.71,2.21,2.71,3v2h28c3.05,0.2,3,2.32,3,4.79,0,0.37,0,.78,0,1.21l-2,0c0-.45,0-0.86,0-1.24,0-2.7-.09-2.71-1.09-2.78H1627v-4c0-1,0-1-.71-1h-13c-1.06,0-2.34.46-2.34,1v34Z" transform="translate(-1238.12 -594.46)"/><path class="c" d="M1656.3,734.61h-44.65a3.09,3.09,0,0,1-2.42-1.09,3.2,3.2,0,0,1-.66-2.62l4.56-25.87a4.14,4.14,0,0,1,4-3.36h44.65a3.09,3.09,0,0,1,2.42,1.09,3.2,3.2,0,0,1,.66,2.63l-4.56,25.87A4.14,4.14,0,0,1,1656.3,734.61Zm-39.19-30.95a2.15,2.15,0,0,0-2,1.71l-4.56,25.87a1.19,1.19,0,0,0,.22,1,1.12,1.12,0,0,0,.88.37h44.65a2.15,2.15,0,0,0,2-1.71l4.56-25.87a1.19,1.19,0,0,0-.22-1,1.12,1.12,0,0,0-.88-0.37h-44.65Z" transform="translate(-1238.12 -594.46)"/><path class="c" d="M1644.76,717.94a1,1,0,0,1-1-1c0-3.48-3.22-6.31-7.18-6.31-3.36,0-6.31,2.09-7,5a1,1,0,1,1-1.94-.48c0.93-3.76,4.69-6.49,9-6.49,5.06,0,9.18,3.73,9.18,8.31A1,1,0,0,1,1644.76,717.94Z" transform="translate(-1238.12 -594.46)"/><path class="c" d="M1645,718.28a1,1,0,0,1-.25,0l-3.92-1a1,1,0,1,1,.49-1.94l3.38,0.86,2.34-2.31a1,1,0,0,1,1.41,1.42l-2.74,2.7A1,1,0,0,1,1645,718.28Z" transform="translate(-1238.12 -594.46)"/><path class="c" d="M1637.11,727.9c-5.06,0-9.18-3.73-9.18-8.31a1,1,0,1,1,2,0c0,3.48,3.22,6.31,7.18,6.31,3.36,0,6.31-2.09,7-5a1,1,0,1,1,1.94.48C1645.14,725.17,1641.38,727.9,1637.11,727.9Z" transform="translate(-1238.12 -594.46)"/><path class="c" d="M1626,723a1,1,0,0,1-.7-1.71l2.74-2.7a1,1,0,0,1,1-.26l3.92,1a1,1,0,1,1-.49,1.94l-3.38-.86-2.34,2.31A1,1,0,0,1,1626,723Z" transform="translate(-1238.12 -594.46)"/><path class="c" d="M1290,730.56a1,1,0,0,1-1-1V694.3h-48.89v34.26h29.16a1,1,0,0,1,0,2h-31.16V692.3H1291v37.26A1,1,0,0,1,1290,730.56Z" transform="translate(-1238.12 -594.46)"/><path class="c" d="M1264.56,719.76l-26.44-25.49v-2H1291v2ZM1241,694.3L1264.56,717l23.53-22.68H1241Z" transform="translate(-1238.12 -594.46)"/><path class="c" d="M1268.51,730.56h-30.4v-2l18.55-17.88a1,1,0,1,1,1.39,1.44l-17,16.41h27.48A1,1,0,0,1,1268.51,730.56Zm-29.4-1.54h0Z" transform="translate(-1238.12 -594.46)"/><path class="c" d="M1290,730a1,1,0,0,1-.69-0.28l-18.25-17.58a1,1,0,1,1,1.39-1.44l18.25,17.58A1,1,0,0,1,1290,730Z" transform="translate(-1238.12 -594.46)"/><path class="c" d="M1295.82,736.41a1,1,0,0,1-.71-1.71l4.91-4.91a0.34,0.34,0,0,0,0-.48l-4.91-4.91a1,1,0,0,1,1.41-1.41l4.91,4.91a2.34,2.34,0,0,1,0,3.31l-4.91,4.91A1,1,0,0,1,1295.82,736.41Z" transform="translate(-1238.12 -594.46)"/><path class="c" d="M1300.47,730.56H1277.9a1,1,0,0,1,0-2h22.57A1,1,0,0,1,1300.47,730.56Z" transform="translate(-1238.12 -594.46)"/><path class="c" d="M1647,942.05l-10.61-10.8h-5.51a1,1,0,0,1,0-2h6.35l7.73,7.87-0.06-7.87h13.54a1.44,1.44,0,0,0,1.44-1.44V895.26a1.44,1.44,0,0,0-1.44-1.44h-49.12a1.44,1.44,0,0,0-1.44,1.44V927.8a1.44,1.44,0,0,0,1.44,1.44h14.81a1,1,0,0,1,0,2h-14.81a3.45,3.45,0,0,1-3.44-3.44V895.26a3.45,3.45,0,0,1,3.44-3.44h49.12a3.45,3.45,0,0,1,3.44,3.44V927.8a3.45,3.45,0,0,1-3.44,3.44h-11.53Z" transform="translate(-1238.12 -594.46)"/><path class="c" d="M1647.73,905.29h-28.87a1,1,0,0,1,0-2h28.87A1,1,0,0,1,1647.73,905.29Z" transform="translate(-1238.12 -594.46)"/><path class="c" d="M1647.73,912.76h-28.87a1,1,0,0,1,0-2h28.87A1,1,0,0,1,1647.73,912.76Z" transform="translate(-1238.12 -594.46)"/><path class="c" d="M1635.51,920.23h-16.66a1,1,0,0,1,0-2h16.66A1,1,0,1,1,1635.51,920.23Z" transform="translate(-1238.12 -594.46)"/><path class="c" d="M1618.8,937.27a1,1,0,0,1-.71-1.71l5.06-5.06a0.38,0.38,0,0,0,0-.54l-5.06-5.06a1,1,0,0,1,1.41-1.41l5.06,5.06a2.38,2.38,0,0,1,0,3.37l-5.06,5.06A1,1,0,0,1,1618.8,937.27Z" transform="translate(-1238.12 -594.46)"/><path class="c" d="M1623.6,931.23h-22.72a1,1,0,0,1,0-2h22.72A1,1,0,0,1,1623.6,931.23Z" transform="translate(-1238.12 -594.46)"/><path class="d" d="M1440.48,820.56H1431a2,2,0,0,0-2,2v9.48a2,2,0,0,0,2,2h9.48a2,2,0,0,0,2-2v-9.48a2,2,0,0,0-2-2h0Z" transform="translate(-1238.12 -594.46)"/><rect class="d" x="221.32" y="205.8" width="13.54" height="13.54" rx="1.47" ry="1.47"/><path class="d" d="M1446.07,829.14h-3.61v-3.5h3.61a0.28,0.28,0,0,0,.27-0.19l5.8-17.52a3.77,3.77,0,0,1,3.59-2.59h3.74v3.5h-3.74a0.28,0.28,0,0,0-.27.19l-5.8,17.52A3.77,3.77,0,0,1,1446.07,829.14Z" transform="translate(-1238.12 -594.46)"/></svg>